<svg xmlns="http://www.w3.org/2000/svg" viewBox="0 0 800 600" width="800" height="600"><rect width="800" height="600" fill="#101318"/><line x1="0" y1="0" x2="0" y2="600" stroke="rgba(79,201,255,0.07)"/><line x1="50" y1="0" x2="50" y2="600" stroke="rgba(79,201,255,0.07)"/><line x1="100" y1="0" x2="100" y2="600" stroke="rgba(79,201,255,0.07)"/><line x1="150" y1="0" x2="150" y2="600" stroke="rgba(79,201,255,0.07)"/><line x1="200" y1="0" x2="200" y2="600" stroke="rgba(79,201,255,0.07)"/><line x1="250" y1="0" x2="250" y2="600" stroke="rgba(79,201,255,0.07)"/><line x1="300" y1="0" x2="300" y2="600" stroke="rgba(79,201,255,0.07)"/><line x1="350" y1="0" x2="350" y2="600" stroke="rgba(79,201,255,0.07)"/><line x1="400" y1="0" x2="400" y2="600" stroke="rgba(79,201,255,0.07)"/><line x1="450" y1="0" x2="450" y2="600" stroke="rgba(79,201,255,0.07)"/><line x1="500" y1="0" x2="500" y2="600" stroke="rgba(79,201,255,0.07)"/><line x1="550" y1="0" x2="550" y2="600" stroke="rgba(79,201,255,0.07)"/><line x1="600" y1="0" x2="600" y2="600" stroke="rgba(79,201,255,0.07)"/><line x1="650" y1="0" x2="650" y2="600" stroke="rgba(79,201,255,0.07)"/><line x1="700" y1="0" x2="700" y2="600" stroke="rgba(79,201,255,0.07)"/><line x1="750" y1="0" x2="750" y2="600" stroke="rgba(79,201,255,0.07)"/><line x1="800" y1="0" x2="800" y2="600" stroke="rgba(79,201,255,0.07)"/><line x1="0" y1="0" x2="800" y2="0" stroke="rgba(79,201,255,0.07)"/><line x1="0" y1="50" x2="800" y2="50" stroke="rgba(79,201,255,0.07)"/><line x1="0" y1="100" x2="800" y2="100" stroke="rgba(79,201,255,0.07)"/><line x1="0" y1="150" x2="800" y2="150" stroke="rgba(79,201,255,0.07)"/><line x1="0" y1="200" x2="800" y2="200" stroke="rgba(79,201,255,0.07)"/><line x1="0" y1="250" x2="800" y2="250" stroke="rgba(79,201,255,0.07)"/><line x1="0" y1="300" x2="800" y2="300" stroke="rgba(79,201,255,0.07)"/><line x1="0" y1="350" x2="800" y2="350" stroke="rgba(79,201,255,0.07)"/><line x1="0" y1="400" x2="800" y2="400" stroke="rgba(79,201,255,0.07)"/><line x1="0" y1="450" x2="800" y2="450" stroke="rgba(79,201,255,0.07)"/><line x1="0" y1="500" x2="800" y2="500" stroke="rgba(79,201,255,0.07)"/><line x1="0" y1="550" x2="800" y2="550" stroke="rgba(79,201,255,0.07)"/><line x1="0" y1="600" x2="800" y2="600" stroke="rgba(79,201,255,0.07)"/><rect x="60" y="70" width="257.91969537734985" height="14" rx="7" fill="rgba(215,226,234,0.09199636220932007)"/><rect x="440" y="70" width="123.08867067098618" height="14" rx="7" fill="rgba(215,226,234,0.13908766414970158)"/><rect x="60" y="108" width="145.2220058441162" height="14" rx="7" fill="rgba(215,226,234,0.1114688804745674)"/><rect x="440" y="108" width="177.16148495674133" height="14" rx="7" fill="rgba(215,226,234,0.09358415484428406)"/><rect x="60" y="146" width="219.13270443677902" height="14" rx="7" fill="rgba(215,226,234,0.23059897661209106)"/><rect x="440" y="146" width="257.91733503341675" height="14" rx="7" fill="rgba(215,226,234,0.1938488507270813)"/><rect x="60" y="184" width="270.41163206100464" height="14" rx="7" fill="rgba(215,226,234,0.1656227421760559)"/><rect x="440" y="184" width="229.97883558273315" height="14" rx="7" fill="rgba(215,226,234,0.1232778286933899)"/><rect x="60" y="222" width="234.4668459892273" height="14" rx="7" fill="rgba(215,226,234,0.15869277238845825)"/><rect x="440" y="222" width="293.53020429611206" height="14" rx="7" fill="rgba(215,226,234,0.10350209474563599)"/><rect x="60" y="260" width="121.52071714401245" height="14" rx="7" fill="rgba(215,226,234,0.13870555397123097)"/><rect x="440" y="260" width="136.40735387802124" height="14" rx="7" fill="rgba(215,226,234,0.1573238614201546)"/><rect x="60" y="298" width="143.7214171886444" height="14" rx="7" fill="rgba(215,226,234,0.24418845564126967)"/><rect x="440" y="298" width="282.73627281188965" height="14" rx="7" fill="rgba(215,226,234,0.09832716941833497)"/><rect x="60" y="336" width="231.01558059453964" height="14" rx="7" fill="rgba(215,226,234,0.22612833499908447)"/><rect x="440" y="336" width="166.39224529266357" height="14" rx="7" fill="rgba(215,226,234,0.20291903018951415)"/><rect x="60" y="374" width="333.5767698287964" height="14" rx="7" fill="rgba(215,226,234,0.13230921268463136)"/><rect x="440" y="374" width="280.6471586227417" height="14" rx="7" fill="rgba(215,226,234,0.16683306217193605)"/><rect x="60" y="412" width="336.0457944869995" height="14" rx="7" fill="rgba(215,226,234,0.19007944583892822)"/><rect x="440" y="412" width="198.72287273406982" height="14" rx="7" fill="rgba(215,226,234,0.10637941837310791)"/><rect x="60" y="450" width="130.94890117645264" height="14" rx="7" fill="rgba(215,226,234,0.1979937246441841)"/><rect x="440" y="450" width="241.2320899963379" height="14" rx="7" fill="rgba(215,226,234,0.10795848846435546)"/><rect x="60" y="488" width="275.9230613708496" height="14" rx="7" fill="rgba(215,226,234,0.21893035888671875)"/><rect x="440" y="488" width="150.33052444458008" height="14" rx="7" fill="rgba(215,226,234,0.09099628448486329)"/><rect x="60" y="526" width="177.93836921453476" height="14" rx="7" fill="rgba(215,226,234,0.20982778906822203)"/><rect x="440" y="526" width="170.63409805297852" height="14" rx="7" fill="rgba(215,226,234,0.16041683197021483)"/><rect x="60" y="40" width="200" height="16" rx="8" fill="#4FC9FF" opacity="0.8"/><text x="60" y="576" font-family="Kanit,sans-serif" font-size="20" fill="rgba(215,226,234,0.35)" letter-spacing="3">SAMPLE DATA — REPLACE</text></svg>